<svg width="327" height="137" viewBox="0 0 327 137" fill="none" xmlns="http://www.w3.org/2000/svg">
<path d="M182 39.3477C174.6 20.6619 167.384 14.3716 160.539 9.00639C157.209 6.41628 159.614 3.08613 165.534 1.42106C161.464 0.866034 156.469 0.126003 150.179 4.5662C142.963 1.23605 115.582 -3.01914 112.622 16.4067L110.402 19.3668C109.292 22.882 110.587 22.512 112.992 21.2169C115.397 19.9219 127.793 16.5917 131.308 18.4418C134.083 24.9171 137.783 26.0271 146.663 27.3222C144.073 25.8421 140.373 24.7321 139.448 19.1818C145.183 18.9968 158.504 23.437 164.054 28.8023C162.204 24.3621 144.073 10.3014 121.132 15.8517C120.392 11.5965 129.088 6.41628 139.263 7.15631C149.069 7.89634 158.504 10.4865 165.349 16.5917C172.531 22.8366 178.221 30.6128 182 39.3477Z" stroke="#0EA5E9" stroke-width="1.85008" stroke-linecap="round" stroke-linejoin="round"/>
<path d="M12.9766 52.9456H5.53416V99H12.9766V52.9456ZM51.3987 76.6089C51.3987 69.1664 48.3454 65.4134 41.2209 65.4134C36.7045 65.4134 32.7607 67.1945 29.8346 69.5481L29.5165 66.1131H23.0282V99H30.3434V75.0186C31.9337 73.5556 35.3687 71.52 38.6765 71.52C42.5568 71.52 44.0834 73.6828 44.0834 77.8175V99H51.3987V76.6089ZM88.2936 50.9737H81.1691V68.2759C78.9428 66.3676 76.0803 65.4134 72.3272 65.4134C65.2028 65.4134 58.46 70.057 58.46 83.0972C58.46 94.9925 63.6125 99.7633 71.1822 99.7633C75.6986 99.7633 78.9428 98.1731 81.5508 95.6922H81.678L82.1869 99H88.2936V50.9737ZM80.9783 90.4761C79.1972 92.3208 76.3347 93.8475 73.5358 93.8475C68.2561 93.8475 66.0297 90.1581 66.0297 83.0336C66.0297 76.1636 68.1289 71.3928 73.8539 71.3928C76.9708 71.3928 79.5789 72.8559 80.9783 73.9373V90.4761ZM97.136 88.5678C97.136 95.9467 100.189 99.6997 107.059 99.6997C111.576 99.6997 115.456 97.9822 118.318 95.3742L118.827 99H125.188V66.1131H117.873V90.0945C116.283 91.5575 112.848 93.5295 109.604 93.5295C105.723 93.5295 104.451 91.4303 104.451 87.2956V66.1131H97.136V88.5678ZM145.613 65.4134C138.743 65.4134 132.954 68.7212 132.954 75.5911C132.954 83.4153 139.251 84.6239 144.658 85.6417C148.857 86.405 151.528 87.0411 151.528 90.3489C151.528 93.1478 148.984 94.2928 145.358 94.2928C140.078 94.2928 138.743 91.5575 137.916 88.4406L131.682 90.4761C132.7 96.5828 137.216 99.7633 145.104 99.7633C153.182 99.7633 158.653 96.1375 158.653 89.3311C158.653 81.825 152.61 80.4892 146.948 79.4714C142.623 78.7081 139.824 77.8175 139.824 74.7642C139.824 72.6014 141.478 70.8839 145.485 70.8839C149.747 70.8839 150.956 73.1739 151.719 76.4181L158.08 74.7642C156.808 69.0392 153.246 65.4134 145.613 65.4134Z" fill="#0EA5E9"/>
<path d="M178.001 52.9456L162.671 99H170.24L174.439 86.405H191.168L195.494 99H203.636L187.479 52.9456H178.001ZM189.451 80.1711H175.902L182.645 59.8156H182.772L189.451 80.1711ZM209.825 112.486H216.886V96.5828C219.176 98.4275 222.102 99.7633 226.046 99.7633C233.425 99.7633 239.658 94.7381 239.658 81.7614C239.658 69.7389 234.442 65.4134 227.509 65.4134C223.183 65.4134 219.43 66.8764 216.504 69.6117L216.122 66.1131H209.825V112.486ZM217.077 74.8914C218.858 73.2375 221.975 71.3928 225.092 71.3928C229.735 71.3928 232.025 74.3189 232.025 81.8886C232.025 89.1403 229.99 93.7839 224.455 93.7839C221.275 93.7839 218.349 91.8756 217.077 90.8578V74.8914ZM247.035 112.486H254.096V96.5828C256.386 98.4275 259.312 99.7633 263.256 99.7633C270.635 99.7633 276.868 94.7381 276.868 81.7614C276.868 69.7389 271.652 65.4134 264.719 65.4134C260.393 65.4134 256.64 66.8764 253.714 69.6117L253.332 66.1131H247.035V112.486ZM254.287 74.8914C256.068 73.2375 259.185 71.3928 262.302 71.3928C266.945 71.3928 269.235 74.3189 269.235 81.8886C269.235 89.1403 267.2 93.7839 261.665 93.7839C258.485 93.7839 255.559 91.8756 254.287 90.8578V74.8914ZM295.508 65.4134C288.638 65.4134 282.85 68.7212 282.85 75.5911C282.85 83.4153 289.147 84.6239 294.554 85.6417C298.753 86.405 301.424 87.0411 301.424 90.3489C301.424 93.1478 298.88 94.2928 295.254 94.2928C289.974 94.2928 288.638 91.5575 287.811 88.4406L281.578 90.4761C282.595 96.5828 287.112 99.7633 295 99.7633C303.078 99.7633 308.549 96.1375 308.549 89.3311C308.549 81.825 302.506 80.4892 296.844 79.4714C292.519 78.7081 289.72 77.8175 289.72 74.7642C289.72 72.6014 291.374 70.8839 295.381 70.8839C299.643 70.8839 300.852 73.1739 301.615 76.4181L307.976 74.7642C306.704 69.0392 303.142 65.4134 295.508 65.4134ZM323.571 94.9925C323.571 91.812 321.854 90.1581 318.61 90.1581C315.302 90.1581 313.648 91.812 313.648 94.9925C313.648 98.1731 315.302 99.7633 318.61 99.7633C321.917 99.7633 323.571 98.1094 323.571 94.9925Z" fill="white"/>
</svg>
